<?xml version="1.0" standalone="no"?>
<!DOCTYPE svg PUBLIC "-//W3C//DTD SVG 20010904//EN"
 "http://www.w3.org/TR/2001/REC-SVG-20010904/DTD/svg10.dtd">
<svg version="1.0" xmlns="http://www.w3.org/2000/svg"
 width="269.000000pt" height="266.000000pt" viewBox="0 0 269.000000 266.000000"
 preserveAspectRatio="xMidYMid meet">

<g transform="translate(0.000000,266.000000) scale(0.100000,-0.100000)"
fill="#000000" stroke="none">
<path d="M1154 2256 c-134 -33 -286 -158 -347 -288 -49 -102 -60 -163 -55
-277 4 -73 12 -111 32 -161 28 -69 71 -140 84 -140 4 0 25 22 46 50 l38 50
-22 44 c-36 76 -54 188 -42 265 18 105 74 204 154 272 71 59 201 121 288 138
37 7 39 9 15 10 -49 2 -144 -27 -218 -65 -38 -19 -73 -31 -79 -28 -7 5 -8 2
-3 -6 6 -10 4 -12 -8 -7 -22 8 -114 -93 -149 -165 -39 -80 -51 -147 -46 -258
5 -94 5 -95 -10 -50 -18 58 -20 194 -3 245 60 176 177 295 354 361 67 25 53
30 -29 10z"/>
<path d="M1403 2223 c9 -2 23 -2 30 0 6 3 -1 5 -18 5 -16 0 -22 -2 -12 -5z"/>
<path d="M1889 2208 c-7 -12 -25 -35 -39 -52 -14 -17 -39 -49 -55 -71 -16 -22
-52 -68 -79 -101 -28 -34 -84 -102 -123 -150 -141 -172 -162 -196 -175 -188
-5 3 -12 -3 -15 -15 -3 -12 -10 -21 -15 -21 -5 0 -6 -4 -3 -10 3 -5 -7 -23
-22 -39 -24 -25 -30 -28 -41 -16 -10 12 -9 18 8 35 25 25 25 26 0 26 -13 0
-19 -5 -16 -13 8 -19 -29 -11 -54 12 -11 10 -18 25 -15 32 3 9 0 11 -6 7 -6
-4 -15 0 -20 7 -6 11 -12 11 -27 3 -13 -8 -24 -9 -37 -2 -15 9 -17 8 -11 -7 5
-14 4 -16 -8 -6 -11 9 -15 8 -21 -6 -5 -10 -7 -22 -6 -26 1 -5 -2 -6 -7 -3 -5
3 -49 -43 -98 -102 -136 -164 -175 -203 -228 -228 l-49 -23 37 -6 c20 -4 60
-4 88 -1 97 13 125 37 282 239 l69 89 66 -66 c37 -36 69 -66 72 -66 5 0 53 59
304 375 87 110 162 204 167 209 5 6 19 -1 37 -18 l28 -27 6 23 c10 40 30 219
25 223 -2 2 -11 -5 -19 -17z"/>
<path d="M1352 1922 c-1 -8 -19 -39 -39 -70 -26 -39 -39 -51 -41 -39 -7 35
-23 16 -20 -25 1 -29 12 -54 33 -82 37 -49 48 -53 67 -24 12 19 13 46 8 138
-4 63 -7 109 -8 102z"/>
<path d="M1118 1813 l-48 -4 0 -86 0 -86 61 77 c35 45 58 84 55 92 -3 8 -9 13
-13 12 -4 -1 -29 -3 -55 -5z"/>
<path d="M1832 1665 c0 -16 2 -22 5 -12 2 9 2 23 0 30 -3 6 -5 -1 -5 -18z"/>
<path d="M1372 1646 c-19 -23 -19 -25 -2 -23 10 1 16 5 13 10 -2 4 1 14 7 22
21 25 5 16 -18 -9z"/>
<path d="M1824 1612 c-6 -4 -19 -30 -28 -58 -47 -144 -197 -279 -347 -313 -88
-21 -254 -2 -284 31 -7 8 -5 9 8 5 9 -4 46 -11 81 -18 122 -21 259 16 362 98
48 39 114 124 114 147 0 6 -5 3 -11 -6 -5 -10 -16 -15 -25 -11 -11 4 -15 1
-13 -13 2 -10 0 -20 -4 -21 -4 -2 -13 -7 -20 -13 -35 -30 -106 -79 -136 -94
-120 -63 -273 -61 -398 3 l-41 20 -41 -49 c-22 -27 -41 -51 -41 -54 0 -3 26
-19 58 -35 210 -106 457 -73 631 84 56 51 118 147 137 211 17 58 16 98 -2 86z"/>
<path d="M522 1051 c-10 -6 -132 -257 -132 -272 0 -4 12 -1 28 7 15 7 37 14
49 14 30 0 46 19 73 84 12 31 25 56 29 56 4 0 14 -14 22 -32 l16 -32 32 47 32
47 -21 40 c-11 22 -26 40 -33 41 -6 0 -28 2 -49 4 -20 1 -41 0 -46 -4z"/>
<path d="M742 1033 c-24 -14 -40 -28 -34 -32 18 -12 6 -50 -29 -87 -94 -102
-106 -112 -147 -123 -23 -6 -59 -15 -81 -21 -53 -14 -87 -43 -116 -101 -14
-26 -25 -51 -25 -54 0 -3 25 -5 56 -5 l55 0 20 45 c15 33 27 46 47 50 108 22
137 45 217 168 37 57 55 76 68 73 15 -4 17 4 17 55 0 32 -1 59 -2 58 -2 -1
-23 -12 -46 -26z"/>
<path d="M1208 1052 l-38 -3 0 -140 c0 -163 -9 -192 -65 -208 -46 -12 -98 2
-118 33 -12 18 -17 59 -19 167 l-3 144 -52 3 -53 3 0 -146 c0 -190 16 -232
105 -277 27 -14 59 -20 101 -20 87 -1 145 29 182 90 26 45 27 55 31 198 3 169
7 162 -71 156z"/>
<path d="M1378 1054 c-16 -5 -18 -25 -18 -225 l0 -220 53 3 52 3 3 63 3 63 47
-3 c45 -3 48 -5 90 -65 l43 -63 55 0 c30 0 54 4 54 8 0 4 -20 36 -45 70 l-45
62 39 38 c53 50 63 110 31 178 -33 67 -79 85 -229 90 -64 1 -124 0 -133 -2z
m246 -105 c31 -25 34 -66 7 -100 -16 -19 -30 -24 -90 -27 l-71 -4 0 76 0 76
64 0 c49 0 69 -5 90 -21z"/>
<path d="M1968 1016 c-17 -34 -96 -203 -164 -353 l-24 -53 55 0 55 0 24 48 24
47 105 0 106 0 22 -47 22 -48 54 0 c29 0 53 4 53 9 0 5 -46 105 -103 223
l-103 213 -53 0 c-52 0 -54 -1 -73 -39z m107 -138 c15 -35 29 -69 32 -75 4
-10 -13 -13 -67 -13 -39 0 -70 4 -68 8 34 84 62 142 68 142 4 0 20 -28 35 -62z"/>
<path d="M690 805 l-31 -46 35 -74 36 -75 55 0 c30 0 55 3 55 6 0 11 -109 234
-114 234 -3 0 -19 -20 -36 -45z"/>
<path d="M370 518 c-19 -13 -40 -35 -47 -48 -49 -96 51 -203 159 -171 41 13
60 38 38 51 -8 5 -23 2 -37 -7 -30 -20 -87 -10 -108 20 -23 33 -19 84 10 112
26 27 60 32 100 13 20 -9 28 -9 37 0 20 20 -15 44 -69 49 -39 4 -55 0 -83 -19z"/>
<path d="M622 520 c-59 -36 -77 -120 -37 -177 8 -12 35 -29 60 -39 38 -14 52
-15 85 -5 46 13 87 53 95 91 3 14 0 44 -7 65 -25 77 -123 109 -196 65z m133
-45 c59 -58 0 -161 -80 -141 -96 24 -80 166 20 166 25 0 44 -8 60 -25z"/>
<path d="M880 420 c0 -113 1 -120 20 -120 18 0 20 7 20 70 0 39 4 70 9 70 6 0
36 -31 67 -70 42 -50 65 -70 81 -70 24 0 24 0 21 118 -3 109 -4 117 -23 117
-18 0 -21 -8 -25 -77 l-5 -78 -65 80 c-92 113 -100 110 -100 -40z"/>
<path d="M1140 520 c0 -17 7 -20 40 -20 l40 0 0 -100 c0 -93 1 -100 20 -100
19 0 20 7 20 100 l0 100 40 0 c33 0 40 3 40 20 0 19 -7 20 -100 20 -93 0 -100
-1 -100 -20z"/>
<path d="M1443 528 c-9 -15 -103 -219 -103 -224 0 -2 11 -4 24 -4 17 0 26 7
30 25 6 24 10 25 75 25 65 0 69 -1 75 -25 5 -18 13 -25 31 -25 14 0 25 2 25 4
0 2 -25 56 -55 120 -42 91 -59 116 -74 116 -11 0 -23 -6 -28 -12z m47 -85 c8
-21 16 -41 18 -45 2 -5 -15 -8 -37 -8 -23 0 -41 4 -41 10 0 14 33 80 40 80 3
0 12 -17 20 -37z"/>
<path d="M1647 533 c-4 -3 -7 -57 -7 -120 l0 -113 90 0 c77 0 93 3 110 20 23
23 26 63 5 83 -11 12 -12 21 -3 44 15 40 5 61 -37 78 -35 15 -146 21 -158 8z
m148 -63 c0 -23 -4 -25 -52 -28 l-53 -3 0 31 0 31 53 -3 c48 -3 52 -5 52 -28z
m12 -86 c12 -31 -11 -49 -66 -52 l-51 -3 0 35 0 36 55 0 c42 0 57 -4 62 -16z"/>
<path d="M1917 533 c-4 -3 -7 -57 -7 -120 l0 -113 90 0 c72 0 90 3 90 15 0 10
-16 15 -62 17 l-63 3 -3 103 c-2 90 -5 102 -21 102 -10 0 -21 -3 -24 -7z"/>
<path d="M2130 420 l0 -120 90 0 c72 0 90 3 90 15 0 11 -16 15 -67 17 -72 3
-73 5 -64 61 0 4 26 7 56 7 48 0 55 3 55 20 0 16 -8 19 -57 22 -54 3 -58 5
-58 28 0 24 3 25 68 28 59 3 67 5 67 22 0 18 -7 20 -90 20 l-90 0 0 -120z"/>
<path d="M1981 214 c0 -11 3 -14 6 -6 3 7 2 16 -1 19 -3 4 -6 -2 -5 -13z"/>
<path d="M2260 220 c0 -5 5 -10 11 -10 5 0 7 5 4 10 -3 6 -8 10 -11 10 -2 0
-4 -4 -4 -10z"/>
</g>
</svg>
